<?xml version="1.0" encoding="utf-8"?>
<!-- Generator: Adobe Illustrator 25.3.1, SVG Export Plug-In . SVG Version: 6.00 Build 0)  -->
<svg version="1.1" id="Layer_1" xmlns="http://www.w3.org/2000/svg" xmlns:xlink="http://www.w3.org/1999/xlink" x="0px" y="0px"
	 viewBox="0 0 384 384" style="enable-background:new 0 0 384 384;" xml:space="preserve">
<style type="text/css">
	.st0{fill:#FF8A00;}
</style>
<g>
	<path class="st0" d="M383.6,116.4c-4.4,8.9-8.9,10.8-18.4,7.9c-4.3-1.3-8.6-2.6-13-4c-0.5,0.8-1,1.5-1.3,2.3
		c-26.4,62.7-71,108.8-129.8,141.9c-39.7,22.3-82.2,36.7-126.7,45.8c-25.1,5.2-50.4,8.5-76,9.5C6.1,320.3-2.4,310,1.2,298.9
		c2.1-6.5,7.9-10.7,14.9-11c56.4-2.4,110.6-14.4,162.2-37.4c41.9-18.7,78.6-44.7,107.7-80.6c14-17.2,25.3-36.1,34.2-56.4
		c0.3-0.7,0.5-1.4,1-2.5c-2.9-0.9-5.7-2-8.5-2.7c-5.8-1.5-9.5-4.9-10.3-11c-0.7-5,2.2-9.4,7.8-12.4c11.4-6.1,22.9-12.2,34.3-18.3
		c8.2-4.3,14.4-2.5,18.7,5.6c6.9,13,13.7,26,20.5,39C383.6,112.9,383.6,114.6,383.6,116.4z"/>
	<path class="st0" d="M348.5,383.7c-9.5-3.2-12.9-10-12.8-19.8c0.2-56.9,0.1-113.8,0.1-170.6c0-12.2,10.5-20.2,21.3-16.2
		c6.2,2.3,9.6,6.9,10.5,13.4c0.2,1.7,0.2,3.5,0.2,5.2c0,55.9-0.1,111.8,0.1,167.6c0,9.9-3.1,16.9-12.6,20.4
		C353,383.7,350.7,383.7,348.5,383.7z"/>
	<path class="st0" d="M252.6,383.7c-9.5-3.2-13-9.9-12.8-19.8c0.3-25.2,0.1-50.4,0.1-75.6c0-11.7,11.1-19.6,21.7-15.3
		c6.6,2.6,10.2,7.8,10.2,14.8c0.2,26.7,0.2,53.4,0,80.1c0,8.3-5.2,13.1-12.5,15.9C257.1,383.7,254.9,383.7,252.6,383.7z"/>
	<path class="st0" d="M156.8,383.7c-9.5-3.2-13.2-9.9-12.8-19.8c0.4-9.1,0.1-18.2,0.1-27.3c0-9.5,6.6-16.5,15.5-16.7
		c9.2-0.2,16.3,6.5,16.4,16.1c0.2,10.5,0.1,20.9,0,31.4c-0.1,8.4-5,13.4-12.5,16.3C161.3,383.7,159.1,383.7,156.8,383.7z"/>
	<path class="st0" d="M61,383.7c-9.4-3.2-13.4-9.9-12.8-19.8c0.3-4.1,0-8.2,0.1-12.3c0.2-8.5,6.7-15.3,14.9-15.8
		c8.4-0.5,15.8,5.2,16.7,13.8c0.7,6.7,0.5,13.4,0.1,20.1c-0.5,7.5-5.7,11.4-12.2,14C65.5,383.7,63.3,383.7,61,383.7z"/>
	<path class="st0" d="M31.4,160c-5.4-0.2-10.3-2.9-13.2-8.6c-3.1-6-2.3-11.8,1.7-17.2c11.7-15.7,23.5-31.3,35.2-47
		c19.8-26.4,39.7-52.9,59.4-79.3c4.3-5.7,9.7-8.6,16.8-7.1c11.7,2.5,16.5,15.6,9.2,25.5c-8.2,11.2-16.6,22.2-24.9,33.3
		c-23.2,30.9-46.4,61.8-69.5,92.8C42.7,156.9,38.4,160,31.4,160z"/>
	<path class="st0" d="M64.2,32.3C64.1,50,50,64.1,32.4,64.1c-17.8,0-32.1-14.3-32-32.1C0.5,14.6,14.9,0.3,32.5,0.3
		C50,0.4,64.2,14.7,64.2,32.3z"/>
	<path class="st0" d="M160,128.1c0,17.7-14.1,31.8-31.8,31.9c-17.8,0-32.1-14.3-32-32.1c0.1-17.5,14.5-31.8,32-31.7
		C145.8,96.2,160,110.5,160,128.1z"/>
</g>
</svg>
