<?xml version="1.0" encoding="utf-8"?>
<!-- Generator: Adobe Illustrator 25.3.1, SVG Export Plug-In . SVG Version: 6.00 Build 0)  -->
<svg version="1.1" id="Layer_1" xmlns="http://www.w3.org/2000/svg" xmlns:xlink="http://www.w3.org/1999/xlink" x="0px" y="0px"
	 viewBox="0 0 384 384" style="enable-background:new 0 0 384 384;" xml:space="preserve">
<style type="text/css">
	.st0{fill:#FF8A00;}
</style>
<g>
	<path class="st0" d="M0.4,324.8c0.9-4.2,1.6-8.5,2.7-12.7c9-32.7,37.5-55.4,71.7-55.9c35.5-0.6,71.1-0.6,106.6,0
		c38.8,0.7,69.5,29.1,74,67.6c1,8.5,0.4,17.2,0.5,25.8c0,11.5-0.1,23-0.2,34.5c-85.1,0-170.2,0-255.3,0
		C0.4,364.2,0.4,344.5,0.4,324.8z"/>
	<path class="st0" d="M358.9,0c7,3.3,8.9,9,8.9,16.4c-0.2,38.2-0.1,76.5-0.1,114.7c0,1.5,0,2.9,0,4.5c2.5,0.3,4.6,0.4,6.6,0.8
		c5.7,1.3,9.7,6.7,9.3,12.4c-0.4,5.9-5.3,11-11.2,11c-19.6,0.2-39.1,0.1-58.7,0.2c-17.7,0-35.4,0.1-53.1,0.1c-11.3,0-22.7,0-34,0.1
		c-2.1,0-2.9-0.7-2.9-2.8c-0.3-17.8-5.2-34.2-14.8-49.2c-0.7-1.1-0.9-2.6-0.9-3.9c-0.1-9-0.1-18,0-27c0.1-8.4,4.9-13.3,13.2-13.4
		c12.5-0.1,24.9-0.1,37.4,0c8.3,0,13.3,5,13.3,13.3c0.1,17.9,0,35.7,0,53.6c0,1.5,0,3,0,4.7c10.6,0,21,0,31.8,0c0-1.6,0-3,0-4.5
		c0-38.4,0.1-76.7-0.1-115.1c0-7.4,2.1-12.8,8.9-16C328,0,343.5,0,358.9,0z"/>
	<path class="st0" d="M128.3,96c35.3,0.1,63.9,28.9,63.7,64.3c-0.1,35.1-29,63.8-64,63.7c-35.2-0.1-64-29.2-63.8-64.4
		C64.4,124.5,93.1,95.9,128.3,96z"/>
</g>
</svg>
