<?xml version="1.0" encoding="utf-8"?>
<!-- Generator: Adobe Illustrator 25.3.1, SVG Export Plug-In . SVG Version: 6.00 Build 0)  -->
<svg version="1.1" id="Layer_1" xmlns="http://www.w3.org/2000/svg" xmlns:xlink="http://www.w3.org/1999/xlink" x="0px" y="0px"
	 viewBox="0 0 512 512" style="enable-background:new 0 0 512 512;" xml:space="preserve">
<style type="text/css">
	.st0{fill:#00B454;}
	.st1{fill:#FFFFFF;}
</style>
<g>
	<path class="st0" d="M272,511.5c-10.6,0-21.3,0-31.9,0c-6.2-0.8-12.5-1.4-18.7-2.3c-50.9-7.3-95.8-27.6-134.2-61.8
		C42.8,408,15.1,359,4.5,300.5c-1.7-9.4-2.7-19-4-28.5c0-10.6,0-21.3,0-31.9c0.8-6.2,1.4-12.5,2.3-18.7
		c8-55.5,31.3-103.7,70.7-143.7c48.4-49.1,107.4-74.9,176.4-77c48.3-1.5,93.9,9.8,135.2,35.1c80.3,49.4,123.1,121.6,126.4,216
		c1.7,48.5-10.8,94-36.2,135.3c-40.5,65.8-98.9,106.3-175.1,120.6C290.8,509.3,281.4,510.2,272,511.5z M232.5,296.4
		c-1.9-2.5-2.6-3.5-3.4-4.3c-16.7-16.7-33.4-33.4-50.1-50.1c-6.3-6.3-13.7-8.8-22.2-6.3c-15.9,4.7-20.3,23.9-8.3,36
		c21.9,22.1,43.9,44,65.9,66c12,12,23.3,12,35.4-0.1c44.3-44.3,88.7-88.6,133-133c1.4-1.4,2.9-2.8,4.1-4.3
		c10.3-12.7,3.4-31.4-12.8-34.4c-8.1-1.5-14.5,1.6-20.2,7.3c-39.1,39.2-78.3,78.3-117.4,117.5C235.2,292,234.3,293.9,232.5,296.4z"
		/>
	<path class="st1" d="M232.5,296.4c1.8-2.6,2.8-4.4,4.2-5.8c39.1-39.2,78.3-78.3,117.4-117.5c5.6-5.7,12-8.7,20.2-7.3
		c16.2,3,23.1,21.6,12.8,34.4c-1.3,1.5-2.7,2.9-4.1,4.3c-44.3,44.3-88.6,88.6-133,133c-12.1,12.1-23.4,12.1-35.4,0.1
		c-22-22-44-43.9-65.9-66c-12-12.1-7.6-31.3,8.3-36c8.6-2.5,16,0,22.2,6.3c16.6,16.8,33.4,33.4,50.1,50.1
		C229.9,292.9,230.5,293.9,232.5,296.4z"/>
</g>
</svg>
