<?xml version="1.0" encoding="utf-8"?>
<!-- Generator: Adobe Illustrator 25.3.1, SVG Export Plug-In . SVG Version: 6.00 Build 0)  -->
<svg version="1.1" id="Layer_1" xmlns="http://www.w3.org/2000/svg" xmlns:xlink="http://www.w3.org/1999/xlink" x="0px" y="0px"
	 viewBox="0 0 512 512" style="enable-background:new 0 0 512 512;" xml:space="preserve">
<style type="text/css">
	.st0{fill:#FFFFFF;}
</style>
<g>
	<path class="st0" d="M334.8,511.5c-6.4-2.9-13.5-4.9-19.2-8.9c-10.8-7.5-16.4-18.5-16.9-31.8c-0.2-7.5,0-14.9,0-23.2
		c-2.2,0-3.9,0-5.6,0c-19.1,0-38.3,0-57.4,0c-36.6-0.1-64.5-27.8-64.8-64.3c-0.1-14.3-0.2-28.6,0.1-42.9
		c0.2-10.8,8.4-19.4,18.8-20.5c10.3-1.1,20,5.5,22.7,15.5c0.7,2.5,0.7,5.3,0.8,7.9c0.1,12.6,0,25.3,0,37.9
		c0.1,15,8.5,23.6,23.4,23.6c19,0,37.9,0,56.9,0c1.5,0,2.9-0.1,5-0.2c0-2.4,0-4.5,0-6.6c0-101.6,0.3-203.3-0.2-304.9
		c-0.1-24.2,8.6-41,33.2-49.6c-2.4-0.2-3.6-0.4-4.8-0.4c-30.1,0-60.2-0.1-90.3,0c-14.6,0-23.1,8.7-23.2,23.3c0,6.5,0.1,13-0.1,19.5
		c-0.3,11.9-9.4,20.9-21,21s-21.4-9.1-21.2-21.2c0.2-12.7-0.4-25.9,2.4-38.1c6.2-27.5,32-47.1,60.2-47.1c76-0.2,152.1,0,228.1-0.1
		c14.3,0,27.4,2.5,37.8,13.3c7.6,7.9,11.6,17.3,11.9,28.2c0.2,8.3,0.1,16.6,0.1,24.9c0,118.6,0,237.2,0,355.8
		c0,23.3-10.4,37.9-32.4,45.2c-40.5,13.5-81,27-121.5,40.5c-3.3,1.1-6.6,2.1-9.9,3.1C343.5,511.5,339.2,511.5,334.8,511.5z"/>
	<path class="st0" d="M0.4,209.1c4.3-12.6,13.3-17.4,26.4-17.1c24.6,0.5,49.2,0.1,73.8,0.1c1.8,0,3.6,0,6.3,0c0-2,0-3.7,0-5.5
		c0-18.6,0.1-37.3-0.1-55.9c-0.1-10.1,3.6-17.9,13-22.1c8.7-3.9,17.2-1.6,25.3,6.4c27.2,27.1,54.3,54.3,81.5,81.5
		c10.8,10.8,10.8,22.8-0.1,33.6c-27.5,27.5-55,55.1-82.6,82.5c-12.4,12.3-31.7,7.7-36.2-8.4c-0.8-2.8-0.8-5.9-0.8-8.9
		c-0.1-18.1,0-36.3,0-54.4c0-1.8,0-3.6,0-6c-2.2-0.1-4.1-0.3-6-0.3c-24.4,0-48.9-0.4-73.3,0.1C14.4,235,5,230.6,0.4,217.8
		C0.4,215.1,0.4,212.1,0.4,209.1z"/>
</g>
</svg>
