<?xml version="1.0" encoding="utf-8"?>
<!-- Generator: Adobe Illustrator 25.3.1, SVG Export Plug-In . SVG Version: 6.00 Build 0)  -->
<svg version="1.1" id="Layer_1" xmlns="http://www.w3.org/2000/svg" xmlns:xlink="http://www.w3.org/1999/xlink" x="0px" y="0px"
	 viewBox="0 0 384 384" style="enable-background:new 0 0 384 384;" xml:space="preserve">
<style type="text/css">
	.st0{fill:#FFFFFF;}
</style>
<g>
	<path class="st0" d="M341.7,383.7c-25.9,0-51.9,0-77.8,0c0-43.9,0-87.7,0-131.8c11.1,0,21.7-0.1,32.3,0.1c2.5,0,3.9-0.6,5-3.2
		c6.9-17.8,14.1-35.4,21.1-53.1c0.4-1.1,0.8-2.2,1.3-3.8c-20.1,0-39.8,0-59.7,0c0-1.5,0-2.8,0-4c0-13.9,0-27.7,0-41.6
		c0-10.5,3.2-13.9,13.8-14.2c10-0.2,20-0.1,29.9-0.1c1.3,0,2.6,0,3.9,0c0-20.2,0-40,0-59.9c-15.9,0-31.5,0-47.1,0
		c-40.7,0.1-72.3,31.8-72.4,72.5c0,14.3,0,28.7,0,43c0,1.3,0,2.7,0,4.4c-16.2,0-32,0-47.7,0c0,20.1,0,39.7,0,59.8
		c15.9,0,31.7,0,47.7,0c0,44.2,0,88,0,131.7c-49.9,0-99.8,0-149.7,0c-0.7-0.2-1.4-0.6-2.1-0.7c-23-4-39.8-23.7-39.8-47
		c-0.1-96.1-0.1-192.1,0-288.2c0-26.1,21.3-47.4,47.5-47.4c96.2-0.1,192.3-0.1,288.5,0c21.3,0,40.2,14.9,45.7,35.4
		c0.6,2.1,1.1,4.3,1.6,6.4c0,99.8,0,199.7,0,299.5c-0.2,0.7-0.6,1.4-0.7,2.1c-4,19.5-15.6,32.1-34.4,38.1
		C346.3,382.7,344,383.1,341.7,383.7z"/>
</g>
</svg>
