<?xml version="1.0" encoding="utf-8"?>
<!-- Generator: Adobe Illustrator 25.3.1, SVG Export Plug-In . SVG Version: 6.00 Build 0)  -->
<svg version="1.1" id="Layer_1" xmlns="http://www.w3.org/2000/svg" xmlns:xlink="http://www.w3.org/1999/xlink" x="0px" y="0px"
	 viewBox="0 0 384 384" style="enable-background:new 0 0 384 384;" xml:space="preserve">
<style type="text/css">
	.st0{fill:#FFFFFF;}
</style>
<g>
	<path class="st0" d="M0,297.6c0-86.3,0-172.7,0-259c0.3-0.8,0.6-1.6,0.8-2.4c2.5-11.9,8.4-21.7,18.7-28C25.2,4.6,32,2.9,38.2,0.4
		c65.2,0,130.5,0,195.8,0c0.3,0.2,0.6,0.5,0.9,0.6c24,5.4,37.1,21.7,37.1,46.4c0,48.8,0,97.5,0.1,146.3c0,3.5-0.9,6-3.4,8.5
		c-29.9,29.6-59.6,59.4-89.5,89c-7.2,7.2-12,15.5-13.7,25.6c-1.1,6.3-2.3,12.6-3.5,18.8c-0.9,0.1-1.2,0.2-1.6,0.2
		c-39.2,0-78.5,0.2-117.7-0.1c-13.8-0.1-24.9-6.3-33.6-17.1C4.2,312.4,1.8,305.1,0,297.6z M135.9,160c17.5,0,35,0,52.5,0
		c6.9,0,13.8,0.2,20.6-0.1c12.2-0.6,19.1-14.3,12.3-24.5c-3.6-5.4-8.8-7.2-15.1-7.2c-46.7,0.1-93.5,0-140.2,0c-1,0-2,0-3,0.1
		c-6.6,0.4-12.2,4.7-14.2,11c-3.4,10.5,4.3,20.7,15.9,20.8C88.4,160.1,112.1,160,135.9,160z M104,192c-13,0-26,0-39,0
		c-9.7,0-16.9,6.7-17,15.7c-0.1,9.2,7,16.3,16.8,16.3c26.1,0.1,52.2,0.1,78.3,0c9.9,0,16.9-7,16.8-16.3c-0.1-9.1-7.2-15.7-16.9-15.7
		C130,192,117,192,104,192z M95.9,96.2c10.4,0,20.7,0,31.1,0c9.7,0,16.8-6.7,17-15.7c0.1-9-6.9-16.2-16.5-16.2
		c-21-0.1-41.9-0.1-62.9,0c-9.6,0-16.7,7.1-16.6,16.1s7.2,15.8,16.8,15.8C75.2,96.3,85.6,96.2,95.9,96.2z"/>
	<path class="st0" d="M384,237.7c-1.9,8.5-7.3,14.7-13.3,20.7C334,294.8,297.4,331.3,261,368c-4.6,4.6-9.5,7.2-15.8,8.2
		c-13.9,2.2-27.8,4.8-41.7,7.2c-9.4,1.6-16.2-5.1-14.6-14.5c2.6-15.1,5.3-30.2,7.9-45.3c0.7-4,2.5-7.1,5.4-10
		c38.6-38.4,77.1-76.9,115.7-115.3c3.3-3.3,7.1-6.3,11.2-8.6c9.2-5,18.7-3.6,26.3,3.5c7.3,6.9,14.6,13.7,21.1,21.3
		c3.4,4,5.2,9.4,7.7,14.2C384,231.7,384,234.7,384,237.7z"/>
</g>
</svg>
